<?xml version="1.0" standalone="no"?>
<!DOCTYPE svg PUBLIC "-//W3C//DTD SVG 20010904//EN"
 "http://www.w3.org/TR/2001/REC-SVG-20010904/DTD/svg10.dtd">
<svg version="1.0" xmlns="http://www.w3.org/2000/svg"
 width="1280.000000pt" height="640.000000pt" viewBox="0 0 1280.000000 640.000000"
 preserveAspectRatio="xMidYMid meet">
<g transform="translate(0.000000,640.000000) scale(0.100000,-0.100000)"
fill="#000000" stroke="none">
<path d="M12010 4987 c16 -8 26 -23 28 -41 4 -32 -10 -46 -49 -46 -36 0 -40
-8 -24 -41 13 -24 15 -131 13 -741 l-3 -713 -167 -3 -167 -2 -3 -43 c-2 -35
-7 -43 -26 -45 l-22 -3 2 -272 3 -271 215 -40 c118 -23 220 -44 227 -49 8 -5
9 -15 2 -35 -5 -16 -8 -269 -7 -632 l3 -605 360 0 360 0 5 1725 c3 949 8 1734
10 1745 4 15 -1 20 -25 25 -26 4 -30 10 -33 41 -2 29 1 38 20 47 17 8 -73 11
-362 11 -316 1 -380 -2 -360 -12z m270 -217 l0 -40 -125 0 -125 0 0 40 0 40
125 0 125 0 0 -40z m428 3 l-3 -38 -121 -3 c-115 -2 -122 -1 -127 18 -3 11 -3
29 0 40 5 19 14 20 130 20 l124 0 -3 -37z m-90 -99 c17 -5 22 -14 22 -40 l0
-34 -64 0 c-62 0 -76 7 -76 40 0 32 60 49 118 34z m-434 -270 l26 -47 0 -523
0 -524 -65 0 -65 0 0 520 0 521 25 49 c14 28 32 50 39 50 8 0 26 -21 40 -46z
m429 -3 l27 -49 -2 -1423 -3 -1424 -62 -3 c-58 -3 -63 -1 -68 20 -3 13 -4 655
-3 1428 l3 1405 28 48 c16 26 35 47 41 47 7 0 25 -22 39 -49z"/>
<path d="M3385 4563 c-23 -5 -1388 -297 -1630 -348 -168 -35 -195 -43 -195
-54 0 -4 23 -29 50 -56 l50 -49 0 -713 0 -713 -803 -2 -802 -3 -3 -70 c-2 -46
-8 -75 -19 -87 -14 -16 -14 -21 1 -58 14 -35 16 -101 16 -525 l0 -485 607 2
608 3 5 170 c4 142 8 176 23 198 41 64 123 84 184 47 62 -37 67 -56 73 -245
l5 -170 3070 0 3070 0 5 590 5 590 127 3 128 3 2 -593 c3 -585 3 -593 23 -593
20 0 20 8 23 593 l2 593 128 -3 127 -3 5 -590 c5 -582 5 -590 25 -590 20 0 20
8 23 593 l2 593 128 -3 127 -3 5 -590 c5 -582 5 -590 25 -590 20 0 20 8 23
593 l2 593 128 -3 127 -3 3 -592 c2 -573 3 -593 21 -593 10 0 22 7 25 16 3 9
6 276 6 595 l0 580 128 -3 127 -3 3 -592 c2 -585 2 -593 22 -593 20 0 20 7 20
579 0 319 3 586 6 595 9 24 249 24 258 0 3 -9 6 -276 6 -595 l0 -579 64 0 c49
0 65 4 70 16 12 31 7 1189 -5 1224 -15 41 -11 44 110 65 53 10 157 29 231 44
l135 26 3 268 c2 257 2 267 -17 267 -22 0 -31 19 -31 61 l0 30 -127 -3 -128
-3 -5 -40 -5 -40 -1114 -3 c-885 -2 -1116 0 -1123 10 -4 7 -8 65 -8 128 0 114
0 116 30 150 26 31 38 60 25 60 -2 0 -278 34 -612 75 -334 41 -774 96 -978
121 -203 25 -467 57 -585 72 l-215 27 -3 61 -3 62 48 40 c26 23 45 44 42 47
-7 6 -243 58 -1218 266 -359 76 -661 138 -670 138 -9 -1 -25 -3 -36 -6z m1530
-558 l0 -50 -1500 0 -1500 0 -3 39 c-2 21 -1 44 2 52 5 12 228 14 1503 12
l1498 -3 0 -50z m3 -164 c2 -28 -1 -47 -10 -52 -15 -10 -2958 -12 -2982 -3
-12 4 -16 20 -16 55 l0 49 1503 -2 1502 -3 3 -44z m-2290 -965 c1 -418 -1
-763 -6 -768 -4 -4 -4 -58 0 -120 5 -62 7 -196 6 -298 l-3 -185 -105 0 -105 0
-3 210 c-1 115 1 216 4 225 9 21 11 161 2 167 -10 5 -10 1517 -1 1527 4 4 52
5 107 4 l101 -3 3 -759z m310 4 c1 -415 -1 -762 -4 -770 -3 -8 -5 -49 -3 -90
2 -41 3 -174 4 -295 l0 -220 -105 0 -105 0 -3 210 c-1 115 1 216 4 225 9 21
11 161 2 167 -10 5 -10 1517 -1 1527 4 4 52 5 107 4 l101 -3 3 -755z m310 1
c1 -415 -2 -759 -6 -765 -9 -12 -8 -153 2 -176 4 -9 5 -110 4 -225 l-3 -210
-105 0 -105 0 0 220 c1 121 3 255 6 298 3 43 1 80 -3 83 -10 6 -11 1518 -1
1528 4 4 52 5 107 4 l101 -3 3 -754z m306 743 c9 -24 7 -1502 -2 -1508 -4 -2
-6 -44 -3 -93 8 -158 12 -477 6 -501 -5 -22 -9 -23 -108 -20 l-102 3 0 225 c1
124 3 258 5 298 2 39 0 75 -3 79 -9 8 -9 1518 0 1526 3 4 50 7 104 7 79 0 98
-3 103 -16z m310 0 c9 -24 7 -1502 -2 -1508 -4 -2 -6 -44 -4 -93 9 -166 13
-478 7 -501 -5 -22 -9 -23 -108 -20 l-102 3 -3 190 c-1 105 1 239 6 298 4 60
4 111 0 113 -4 3 -8 349 -8 770 l0 764 104 0 c85 0 105 -3 110 -16z m311 -6
c3 -13 4 -354 2 -758 -3 -404 -5 -775 -5 -825 0 -49 2 -175 4 -280 3 -104 2
-205 -1 -222 l-6 -33 -104 0 -105 0 1 213 c0 116 4 252 7 300 4 49 4 91 0 93
-5 3 -8 349 -8 770 l0 764 105 0 c100 0 105 -1 110 -22z m303 -1045 l-3 -1068
-102 -3 c-99 -3 -103 -2 -108 20 -7 26 1 368 10 497 4 54 3 87 -4 94 -12 12
-16 1481 -5 1511 5 13 25 16 110 16 l104 0 -2 -1067z m3068 1022 c15 -58 84
-55 -1151 -55 -624 0 -1140 3 -1149 6 -16 6 -22 54 -9 67 3 4 523 7 1154 7
l1149 0 6 -25z m2 -109 c9 -47 38 -46 -1156 -46 -755 0 -1130 3 -1143 10 -19
10 -26 40 -12 53 3 4 524 6 1157 5 1129 -3 1151 -3 1154 -22z m-1600 -1083
l-3 -898 -84 -3 c-61 -2 -87 1 -92 10 -10 16 -12 422 -2 431 9 10 10 167 1
173 -10 6 -11 1168 -1 1177 3 4 46 7 95 7 l88 0 -2 -897z m240 303 c1 -325 -1
-593 -6 -598 -4 -4 -4 -58 0 -120 5 -62 7 -196 6 -298 l-3 -185 -90 0 -90 0 0
220 c1 121 2 255 5 298 2 42 0 80 -3 84 -9 9 -9 1178 0 1187 4 4 46 5 93 4
l85 -3 3 -589z m236 -6 c0 -327 0 -631 0 -675 0 -44 0 -179 1 -300 l0 -220
-90 0 -90 0 -3 885 c-1 487 0 891 3 898 3 9 28 12 92 10 l88 -3 -1 -595z m240
584 c9 -24 7 -1162 -2 -1168 -4 -2 -6 -44 -4 -93 9 -165 13 -478 7 -500 -5
-22 -10 -23 -94 -23 l-89 0 -1 900 -1 900 89 0 c72 0 90 -3 95 -16z m234 -881
l-3 -898 -84 -3 c-61 -2 -87 1 -92 10 -10 16 -12 422 -2 431 9 10 10 167 1
173 -10 6 -11 1168 -1 1177 3 4 46 7 95 7 l88 0 -2 -897z m2667 282 l0 -40
-965 0 -965 0 0 30 c0 17 4 36 9 43 7 9 207 12 965 10 l956 -3 0 -40z m-9187
-139 c2 -41 -1 -62 -10 -67 -7 -5 -72 -9 -145 -9 -150 0 -163 6 -163 70 0 73
-5 71 164 68 l151 -3 3 -59z m306 48 c12 -30 6 -93 -10 -108 -12 -13 -39 -16
-125 -16 -135 0 -149 6 -149 65 0 77 -4 75 145 75 112 0 134 -2 139 -16z m334
-48 c2 -41 -1 -62 -10 -67 -19 -12 -226 -11 -249 1 -15 9 -19 22 -19 64 0 29
3 56 7 60 4 3 66 5 137 4 l131 -3 3 -59z m610 6 c2 -31 -2 -60 -9 -68 -9 -11
-60 -14 -274 -14 -145 0 -270 3 -279 6 -12 5 -16 20 -16 63 0 32 3 61 7 64 4
4 133 6 287 5 l281 -3 3 -53z"/>
<path d="M2518 1953 c7 -3 16 -2 19 1 4 3 -2 6 -13 5 -11 0 -14 -3 -6 -6z"/>
<path d="M2828 1953 c7 -3 16 -2 19 1 4 3 -2 6 -13 5 -11 0 -14 -3 -6 -6z"/>
<path d="M3438 1953 c7 -3 16 -2 19 1 4 3 -2 6 -13 5 -11 0 -14 -3 -6 -6z"/>
<path d="M3748 1953 c7 -3 16 -2 19 1 4 3 -2 6 -13 5 -11 0 -14 -3 -6 -6z"/>
<path d="M4058 1953 c7 -3 16 -2 19 1 4 3 -2 6 -13 5 -11 0 -14 -3 -6 -6z"/>
<path d="M4368 1953 c7 -3 16 -2 19 1 4 3 -2 6 -13 5 -11 0 -14 -3 -6 -6z"/>
<path d="M10753 3549 c-5 -5 -123 -20 -263 -34 -140 -14 -273 -28 -295 -31
l-40 -6 3 -368 c2 -345 1 -369 -15 -374 -10 -3 -90 -19 -178 -36 -88 -16 -184
-35 -212 -41 l-53 -10 0 -609 c0 -335 3 -615 6 -624 6 -14 115 -16 1135 -16
l1129 0 0 588 c0 323 3 603 6 623 l6 36 -193 37 c-107 20 -204 39 -217 41
l-23 6 3 374 3 374 -45 6 c-25 3 -155 17 -289 30 -134 14 -249 29 -255 33 -15
9 -204 10 -213 1z m760 -241 c2 -7 2 -21 -1 -30 -4 -17 -44 -18 -657 -18 -571
0 -654 2 -659 15 -3 8 -3 22 0 30 5 13 88 15 659 15 514 0 654 -3 658 -12z
m-5 -110 l3 -28 -654 0 c-596 0 -655 1 -661 16 -17 44 -20 44 663 42 l646 -3
3 -27z m-967 -128 c17 -10 19 -23 19 -160 0 -82 -4 -151 -8 -154 -5 -3 -6 -33
-4 -68 10 -145 13 -560 5 -571 -10 -13 -9 -153 1 -177 4 -9 5 -112 4 -230 l-3
-215 -80 0 -80 0 0 225 c0 124 0 261 1 305 1 44 0 294 -1 555 -3 425 -1 476
13 488 19 15 106 16 133 2z m190 0 c17 -10 19 -23 19 -160 0 -82 -4 -151 -8
-154 -5 -3 -6 -42 -3 -88 6 -82 6 -492 1 -638 -1 -41 0 -82 4 -90 4 -9 5 -112
4 -230 l-3 -215 -80 0 -80 0 0 225 c0 124 0 261 1 305 1 44 0 294 -1 555 -3
425 -1 476 13 488 19 15 106 16 133 2z m194 -6 c14 -14 15 -37 11 -163 -5
-165 -5 -233 1 -550 2 -122 0 -228 -5 -235 -4 -6 -6 -49 -4 -96 9 -150 13
-484 7 -507 -5 -21 -11 -23 -85 -23 l-80 0 1 213 c0 116 4 254 7 305 4 52 4
96 0 98 -4 3 -7 220 -6 484 0 433 2 479 17 483 43 12 120 6 136 -9z m190 0
c14 -14 15 -37 11 -163 -2 -80 -4 -186 -3 -236 0 -49 0 -193 0 -320 -1 -343
-1 -392 4 -610 2 -110 1 -210 -2 -222 -5 -21 -11 -23 -85 -23 l-80 0 1 213 c0
116 4 254 7 305 4 52 4 96 0 98 -4 3 -7 220 -6 484 0 433 2 479 17 483 43 12
120 6 136 -9z m190 0 c14 -14 15 -37 11 -163 -2 -80 -4 -186 -3 -236 0 -49 0
-193 0 -320 -1 -343 -1 -392 4 -610 2 -110 1 -210 -2 -222 -5 -21 -11 -23 -85
-23 l-80 0 1 213 c0 116 4 254 7 305 4 52 4 96 0 98 -4 3 -7 220 -6 484 0 433
2 479 17 483 43 12 120 6 136 -9z m-1307 -1033 c2 -421 0 -536 -10 -543 -7 -4
-48 -8 -90 -8 -66 0 -79 3 -88 19 -16 30 -14 1043 2 1059 9 9 40 12 98 10 l85
-3 3 -534z m1880 315 c1 -120 -1 -224 -6 -230 -10 -13 -9 -162 1 -172 13 -13
8 -439 -5 -452 -7 -7 -42 -12 -88 -12 -46 0 -81 5 -88 12 -13 13 -18 439 -5
452 11 11 12 166 1 172 -10 6 -11 438 -1 448 4 4 48 5 98 4 l90 -3 3 -219z"/>
</g>
</svg>
